<?xml version="1.0" encoding="UTF-8"?>
<svg xmlns="http://www.w3.org/2000/svg" xmlns:xlink="http://www.w3.org/1999/xlink" width="150px" height="36px" viewBox="0 0 151 36" version="1.1">
<g id="surface1">
<path style=" stroke:none;fill-rule:nonzero;fill:rgb(8.235294%,26.666668%,47.843137%);fill-opacity:1;" d="M 15.867188 5.382812 C 15.613281 4.78125 15.191406 3.945312 14.570312 3.042969 C 13.890625 2.050781 12.960938 0.964844 11.738281 0.0117188 C 12.324219 -0.015625 12.890625 0.0078125 13.410156 0.0664062 C 13.796875 0.445312 14.136719 0.855469 14.4375 1.277344 C 15.265625 2.453125 15.734375 3.675781 15.859375 4.414062 C 15.863281 4.449219 15.878906 4.484375 15.898438 4.515625 C 15.914062 4.484375 15.929688 4.449219 15.933594 4.414062 C 16.058594 3.675781 16.527344 2.453125 17.359375 1.277344 C 17.65625 0.855469 17.996094 0.445312 18.382812 0.0664062 C 18.902344 0.0078125 19.46875 -0.015625 20.058594 0.0117188 C 18.832031 0.964844 17.902344 2.050781 17.222656 3.042969 C 16.601562 3.945312 16.179688 4.78125 15.925781 5.382812 L 15.925781 5.519531 C 15.917969 5.496094 15.90625 5.472656 15.898438 5.449219 C 15.886719 5.472656 15.878906 5.496094 15.867188 5.519531 Z M 15.867188 5.382812 "/>
<path style=" stroke:none;fill-rule:nonzero;fill:rgb(8.235294%,26.666668%,47.843137%);fill-opacity:1;" d="M 15.898438 0.667969 C 15.53125 0.511719 15.03125 0.355469 14.441406 0.230469 C 14.648438 0.472656 14.839844 0.71875 15.015625 0.964844 C 15.355469 1.445312 15.640625 1.9375 15.867188 2.40625 L 15.867188 2.527344 C 15.878906 2.503906 15.886719 2.484375 15.898438 2.464844 C 15.90625 2.484375 15.914062 2.503906 15.925781 2.527344 L 15.925781 2.40625 C 16.152344 1.9375 16.4375 1.445312 16.777344 0.964844 C 16.953125 0.71875 17.144531 0.472656 17.351562 0.230469 C 16.761719 0.355469 16.265625 0.511719 15.898438 0.667969 Z M 15.898438 0.667969 "/>
<path style=" stroke:none;fill-rule:nonzero;fill:rgb(8.235294%,26.666668%,47.843137%);fill-opacity:1;" d="M 13.988281 3.347656 C 13.242188 2.261719 12.199219 1.074219 10.800781 0.09375 C 10.492188 0.136719 10.183594 0.191406 9.871094 0.265625 C 10.941406 0.8125 11.816406 1.636719 12.570312 2.484375 C 12.980469 2.941406 13.363281 3.417969 13.726562 3.867188 C 13.878906 4.054688 14.027344 4.242188 14.171875 4.417969 C 14.542969 4.867188 14.886719 5.257812 15.222656 5.566406 C 14.984375 5.007812 14.585938 4.214844 13.988281 3.347656 Z M 13.988281 3.347656 "/>
<path style=" stroke:none;fill-rule:nonzero;fill:rgb(8.235294%,26.666668%,47.843137%);fill-opacity:1;" d="M 12.03125 2.847656 C 11.148438 1.855469 10.167969 0.980469 8.972656 0.53125 C 8.574219 0.667969 8.179688 0.835938 7.789062 1.042969 C 8.855469 1.246094 9.777344 1.820312 10.574219 2.46875 C 11.152344 2.941406 11.6875 3.472656 12.175781 3.953125 C 12.359375 4.136719 12.539062 4.316406 12.707031 4.480469 C 13.023438 4.78125 13.308594 5.035156 13.578125 5.226562 C 13.589844 5.234375 13.605469 5.246094 13.617188 5.253906 C 13.785156 5.28125 13.957031 5.316406 14.136719 5.367188 C 13.964844 5.175781 13.792969 4.972656 13.621094 4.761719 C 13.464844 4.578125 13.3125 4.386719 13.15625 4.191406 C 12.800781 3.75 12.429688 3.292969 12.03125 2.847656 Z M 12.03125 2.847656 "/>
<path style=" stroke:none;fill-rule:nonzero;fill:rgb(8.235294%,26.666668%,47.843137%);fill-opacity:1;" d="M 15.898438 35.425781 C 15.90625 35.460938 15.914062 35.496094 15.925781 35.53125 C 15.925781 35.464844 15.925781 35.394531 15.925781 35.324219 C 16.066406 34.835938 16.242188 34.359375 16.4375 33.890625 C 16.679688 33.308594 16.953125 32.734375 17.222656 32.167969 L 17.308594 31.992188 C 17.550781 31.484375 17.792969 30.988281 18.007812 30.492188 C 18.945312 28.34375 19.4375 26.292969 17.933594 24.085938 C 17.324219 24.273438 16.601562 24.359375 15.898438 24.363281 C 15.191406 24.359375 14.46875 24.273438 13.859375 24.085938 C 12.355469 26.292969 12.847656 28.34375 13.785156 30.492188 C 14.003906 30.988281 14.242188 31.484375 14.484375 31.992188 L 14.570312 32.167969 C 14.839844 32.734375 15.113281 33.308594 15.355469 33.890625 C 15.550781 34.359375 15.726562 34.835938 15.867188 35.324219 C 15.867188 35.394531 15.867188 35.464844 15.867188 35.53125 C 15.878906 35.496094 15.886719 35.460938 15.898438 35.425781 Z M 15.898438 35.425781 "/>
<path style=" stroke:none;fill-rule:nonzero;fill:rgb(8.235294%,26.666668%,47.843137%);fill-opacity:1;" d="M 13.234375 23.84375 C 11.621094 26.261719 12.195312 28.519531 13.148438 30.703125 C 13.371094 31.207031 13.613281 31.714844 13.855469 32.21875 L 13.941406 32.398438 C 14.210938 32.960938 14.480469 33.523438 14.714844 34.089844 C 14.976562 34.722656 15.199219 35.359375 15.347656 36 C 14.9375 35.308594 14.484375 34.710938 13.992188 34.183594 C 13.800781 33.804688 13.582031 33.425781 13.347656 33.042969 C 13.117188 32.660156 12.875 32.277344 12.628906 31.890625 C 12.121094 31.089844 11.605469 30.28125 11.183594 29.453125 C 10.554688 28.234375 10.15625 27.039062 10.28125 25.882812 C 10.390625 24.867188 10.910156 23.855469 12.105469 22.871094 C 12.328125 23.277344 12.730469 23.601562 13.234375 23.84375 Z M 13.234375 23.84375 "/>
<path style=" stroke:none;fill-rule:nonzero;fill:rgb(8.235294%,26.666668%,47.843137%);fill-opacity:1;" d="M 9.605469 25.828125 C 9.738281 24.574219 10.417969 23.359375 11.910156 22.222656 C 11.902344 22.140625 11.902344 22.054688 11.910156 21.964844 C 11.957031 21.914062 12.0625 21.847656 12.304688 21.78125 C 12.546875 21.714844 12.835938 21.667969 13.171875 21.613281 C 13.285156 21.59375 13.398438 21.574219 13.519531 21.554688 C 13.984375 21.476562 14.5 21.371094 14.960938 21.183594 C 15.3125 21.035156 15.644531 20.835938 15.898438 20.550781 C 16.148438 20.835938 16.480469 21.035156 16.832031 21.183594 C 17.292969 21.371094 17.808594 21.476562 18.273438 21.554688 C 18.394531 21.574219 18.511719 21.59375 18.621094 21.613281 C 18.957031 21.667969 19.246094 21.714844 19.488281 21.78125 C 19.730469 21.847656 19.835938 21.914062 19.882812 21.964844 C 19.890625 22.054688 19.890625 22.140625 19.882812 22.222656 C 21.375 23.359375 22.054688 24.574219 22.1875 25.828125 C 22.328125 27.132812 21.875 28.441406 21.234375 29.695312 C 20.796875 30.542969 20.257812 31.394531 19.742188 32.207031 C 19.621094 32.398438 19.5 32.585938 19.386719 32.769531 C 20.347656 32.046875 21.386719 31.453125 22.445312 30.847656 L 22.574219 30.773438 C 23.652344 28.34375 23.742188 26.425781 23.347656 24.894531 C 22.875 23.074219 21.703125 21.757812 20.585938 20.75 C 20.585938 20.753906 20.582031 20.753906 20.582031 20.757812 C 20.574219 20.761719 20.570312 20.769531 20.566406 20.773438 C 20.472656 20.867188 20.390625 20.941406 20.324219 20.996094 C 20.285156 21.027344 20.25 21.054688 20.214844 21.078125 C 20.191406 21.097656 20.164062 21.113281 20.136719 21.125 C 20.082031 21.160156 20.015625 21.183594 19.949219 21.199219 C 19.890625 21.214844 19.828125 21.226562 19.761719 21.234375 C 19.738281 21.230469 19.714844 21.222656 19.695312 21.214844 C 19.410156 21.136719 19.058594 21.082031 18.710938 21.023438 C 18.609375 21.007812 18.507812 20.992188 18.40625 20.972656 C 17.945312 20.894531 17.5 20.800781 17.121094 20.644531 C 16.757812 20.496094 16.472656 20.296875 16.300781 20.007812 L 16.515625 18.777344 C 16.582031 18.394531 16.804688 18.042969 17.164062 17.816406 C 17.199219 17.792969 17.238281 17.769531 17.273438 17.746094 L 17.277344 17.742188 C 17.769531 17.429688 18.28125 17.101562 18.785156 16.59375 C 19.015625 16.355469 19.125 16.046875 19.125 15.734375 C 18.753906 16.042969 18.265625 16.214844 17.753906 16.214844 L 14.039062 16.214844 C 13.527344 16.214844 13.039062 16.042969 12.667969 15.734375 C 12.667969 16.046875 12.777344 16.355469 13.011719 16.59375 C 13.511719 17.101562 14.023438 17.429688 14.515625 17.742188 C 14.554688 17.765625 14.589844 17.792969 14.628906 17.816406 C 14.988281 18.042969 15.210938 18.394531 15.277344 18.777344 L 15.492188 20.007812 C 15.320312 20.296875 15.035156 20.496094 14.671875 20.644531 C 14.292969 20.800781 13.847656 20.894531 13.386719 20.972656 C 13.289062 20.992188 13.183594 21.007812 13.082031 21.023438 C 12.734375 21.082031 12.382812 21.136719 12.101562 21.214844 C 12.078125 21.222656 12.054688 21.230469 12.03125 21.234375 C 11.964844 21.226562 11.902344 21.214844 11.84375 21.199219 C 11.777344 21.183594 11.710938 21.160156 11.65625 21.125 C 11.628906 21.113281 11.605469 21.097656 11.578125 21.078125 C 11.542969 21.054688 11.507812 21.027344 11.46875 20.996094 C 11.402344 20.941406 11.320312 20.867188 11.230469 20.773438 C 11.222656 20.765625 11.214844 20.757812 11.207031 20.75 C 10.089844 21.757812 8.917969 23.074219 8.445312 24.894531 C 8.050781 26.425781 8.140625 28.34375 9.222656 30.773438 L 9.347656 30.847656 C 10.40625 31.453125 11.445312 32.046875 12.410156 32.769531 C 12.292969 32.585938 12.171875 32.398438 12.054688 32.207031 C 11.535156 31.394531 10.996094 30.542969 10.5625 29.695312 C 9.917969 28.441406 9.464844 27.132812 9.605469 25.828125 Z M 9.605469 25.828125 "/>
<path style=" stroke:none;fill-rule:nonzero;fill:rgb(8.235294%,26.666668%,47.843137%);fill-opacity:1;" d="M 10.804688 20.261719 C 9.625 21.3125 8.308594 22.742188 7.785156 24.765625 C 7.398438 26.257812 7.449219 28.050781 8.273438 30.226562 C 7.4375 29.730469 6.601562 29.203125 5.789062 28.570312 C 5.558594 27.9375 5.445312 27.347656 5.425781 26.796875 C 5.378906 25.40625 5.917969 24.222656 6.679688 23.167969 C 7.28125 22.339844 8.007812 21.609375 8.6875 20.925781 C 8.875 20.738281 9.0625 20.550781 9.238281 20.367188 C 9.613281 19.980469 9.957031 19.601562 10.21875 19.230469 L 10.257812 19.234375 C 10.363281 19.507812 10.492188 19.773438 10.644531 20.019531 C 10.695312 20.105469 10.75 20.1875 10.804688 20.261719 Z M 10.804688 20.261719 "/>
<path style=" stroke:none;fill-rule:nonzero;fill:rgb(8.235294%,26.666668%,47.843137%);fill-opacity:1;" d="M 9.6875 18.847656 C 9.851562 18.609375 9.957031 18.390625 10.007812 18.1875 C 9.976562 17.898438 9.976562 17.605469 10.003906 17.3125 C 10.03125 17.066406 10.066406 16.753906 10.089844 16.566406 L 9.890625 16.417969 C 9.84375 16.382812 9.796875 16.34375 9.75 16.308594 C 9.734375 16.363281 9.714844 16.414062 9.695312 16.472656 C 9.570312 16.792969 9.363281 17.175781 9.054688 17.609375 C 8.4375 18.480469 7.402344 19.574219 5.761719 20.839844 C 3.796875 22.355469 3.148438 23.867188 3.171875 25.207031 C 3.175781 25.492188 3.214844 25.773438 3.273438 26.046875 C 3.78125 26.707031 4.3125 27.277344 4.863281 27.785156 C 4.796875 27.453125 4.757812 27.128906 4.746094 26.8125 C 4.695312 25.269531 5.296875 23.96875 6.105469 22.855469 C 6.738281 21.980469 7.507812 21.207031 8.191406 20.519531 C 8.375 20.335938 8.550781 20.160156 8.71875 19.988281 C 9.117188 19.574219 9.453125 19.199219 9.6875 18.847656 Z M 9.6875 18.847656 "/>
<path style=" stroke:none;fill-rule:nonzero;fill:rgb(8.235294%,26.666668%,47.843137%);fill-opacity:1;" d="M 9.167969 15.796875 C 9.164062 15.902344 9.132812 16.0625 9.050781 16.28125 C 8.945312 16.550781 8.761719 16.894531 8.476562 17.296875 C 7.902344 18.109375 6.914062 19.160156 5.3125 20.398438 C 3.351562 21.910156 2.5625 23.472656 2.496094 24.933594 C 2.253906 24.554688 2.03125 24.179688 1.828125 23.800781 C 1.835938 23.550781 1.867188 23.304688 1.914062 23.058594 C 2.195312 21.585938 3.167969 20.136719 5.085938 18.824219 C 6.730469 17.703125 7.664062 16.648438 8.207031 15.851562 C 8.375 15.597656 8.507812 15.371094 8.609375 15.179688 C 8.773438 15.386719 8.957031 15.59375 9.167969 15.796875 Z M 9.167969 15.796875 "/>
<path style=" stroke:none;fill-rule:nonzero;fill:rgb(8.235294%,26.666668%,47.843137%);fill-opacity:1;" d="M 8.125 14.652344 C 8.144531 14.613281 8.160156 14.578125 8.175781 14.542969 C 7.980469 14.210938 7.835938 13.878906 7.730469 13.550781 C 7.515625 13.828125 7.226562 14.15625 6.855469 14.527344 C 6.097656 15.28125 4.992188 16.222656 3.449219 17.273438 C 1.683594 18.472656 0.972656 20.03125 0.761719 21.347656 C 0.914062 21.800781 1.089844 22.257812 1.292969 22.714844 C 1.667969 21.160156 2.738281 19.675781 4.664062 18.359375 C 6.242188 17.28125 7.121094 16.285156 7.621094 15.550781 C 7.867188 15.179688 8.023438 14.875 8.125 14.652344 Z M 8.125 14.652344 "/>
<path style=" stroke:none;fill-rule:nonzero;fill:rgb(8.235294%,26.666668%,47.843137%);fill-opacity:1;" d="M 7.539062 12.671875 C 7.414062 12.917969 7.050781 13.429688 6.339844 14.136719 C 5.617188 14.859375 4.542969 15.777344 3.027344 16.808594 C 1.609375 17.773438 0.8125 18.949219 0.398438 20.078125 C 0.152344 19.042969 0.0273438 18.03125 0 17.058594 C 0.375 16.222656 1.449219 14.9375 3.785156 13.980469 C 5.316406 13.355469 6.4375 12.617188 7.203125 11.957031 C 7.316406 11.859375 7.421875 11.765625 7.519531 11.671875 C 7.496094 11.984375 7.496094 12.320312 7.539062 12.671875 Z M 7.539062 12.671875 "/>
<path style=" stroke:none;fill-rule:nonzero;fill:rgb(8.235294%,26.666668%,47.843137%);fill-opacity:1;" d="M 6.726562 11.535156 C 7.28125 11.058594 7.613281 10.644531 7.773438 10.382812 C 7.84375 10.167969 7.925781 9.949219 8.019531 9.734375 C 7.835938 9.667969 7.664062 9.59375 7.5 9.515625 C 6.886719 9.96875 5.769531 10.667969 3.480469 11.460938 C 2.210938 11.902344 1.4375 12.5625 0.988281 13.292969 C 0.585938 13.941406 0.441406 14.660156 0.457031 15.351562 C 1.140625 14.683594 2.128906 14.003906 3.496094 13.445312 C 4.953125 12.851562 6.011719 12.148438 6.726562 11.535156 Z M 6.726562 11.535156 "/>
<path style=" stroke:none;fill-rule:nonzero;fill:rgb(8.235294%,26.666668%,47.843137%);fill-opacity:1;" d="M 8.285156 9.191406 C 6.21875 8.410156 5.394531 6.949219 5.375 5.648438 C 5.351562 4.269531 6.203125 3.175781 7.328125 3.050781 C 7.832031 2.996094 8.339844 3.214844 9.082031 3.765625 C 9.433594 4.023438 9.816406 4.339844 10.261719 4.707031 L 10.3125 4.75 C 10.679688 5.054688 11.085938 5.386719 11.539062 5.742188 C 11.339844 5.871094 11.152344 6.015625 10.960938 6.167969 C 10.496094 5.503906 9.257812 4.824219 6.828125 4.964844 C 6.640625 4.976562 6.5 5.117188 6.511719 5.28125 C 6.523438 5.441406 6.6875 5.566406 6.875 5.554688 C 9.394531 5.410156 10.238281 6.191406 10.441406 6.589844 C 10.410156 6.617188 10.382812 6.644531 10.351562 6.667969 C 9.796875 6.527344 9.125 6.496094 8.492188 6.53125 C 7.78125 6.566406 7.078125 6.679688 6.574219 6.824219 C 6.394531 6.875 6.300781 7.042969 6.359375 7.199219 C 6.417969 7.355469 6.613281 7.4375 6.789062 7.386719 C 7.226562 7.261719 7.871094 7.152344 8.53125 7.121094 C 8.988281 7.097656 9.433594 7.113281 9.816406 7.167969 C 9.183594 7.804688 8.667969 8.488281 8.285156 9.191406 Z M 8.285156 9.191406 "/>
<path style=" stroke:none;fill-rule:nonzero;fill:rgb(8.235294%,26.666668%,47.843137%);fill-opacity:1;" d="M 10.78125 4.320312 C 11.1875 4.65625 11.636719 5.027344 12.140625 5.417969 C 12.214844 5.390625 12.289062 5.363281 12.363281 5.339844 C 12.453125 5.3125 12.539062 5.289062 12.628906 5.269531 C 12.488281 5.144531 12.347656 5.015625 12.203125 4.878906 C 12.019531 4.699219 11.832031 4.511719 11.640625 4.324219 C 11.160156 3.847656 10.660156 3.351562 10.109375 2.902344 C 9.769531 2.625 9.398438 2.359375 9.011719 2.140625 C 7.761719 1.445312 6.226562 1.910156 5.21875 2.921875 C 3.277344 4.871094 3.914062 6.425781 4.53125 7.828125 C 3.789062 7.921875 3 8.457031 2.289062 9.328125 C 2.78125 9.070312 3.292969 8.878906 3.789062 8.738281 C 4.554688 8.523438 5.296875 8.429688 5.898438 8.410156 C 5.078125 7.582031 4.707031 6.59375 4.695312 5.65625 C 4.667969 4.128906 5.625 2.640625 7.242188 2.460938 C 8.058594 2.371094 8.769531 2.757812 9.523438 3.3125 C 9.886719 3.582031 10.285156 3.910156 10.722656 4.273438 Z M 10.78125 4.320312 "/>
<path style=" stroke:none;fill-rule:nonzero;fill:rgb(8.235294%,26.666668%,47.843137%);fill-opacity:1;" d="M 3.996094 9.304688 C 3.5 9.441406 3 9.636719 2.523438 9.902344 C 1.675781 10.375 1.101562 11.207031 0.769531 12.121094 C 0.695312 12.324219 0.625 12.535156 0.5625 12.75 C 1.105469 12 1.964844 11.347656 3.226562 10.914062 C 5.242188 10.214844 6.292969 9.601562 6.886719 9.1875 C 6.800781 9.132812 6.714844 9.078125 6.628906 9.019531 C 6.085938 8.964844 5.074219 9 3.996094 9.304688 Z M 3.996094 9.304688 "/>
<path style=" stroke:none;fill-rule:nonzero;fill:rgb(8.235294%,26.666668%,47.843137%);fill-opacity:1;" d="M 14.625 10.988281 L 13.511719 14.332031 C 13.820312 13.394531 13.71875 12.488281 13.585938 11.859375 C 13.128906 11.898438 12.796875 11.867188 12.484375 11.800781 C 11.65625 11.617188 11.105469 10.976562 10.582031 10.371094 C 10.503906 10.28125 10.425781 10.191406 10.347656 10.105469 C 10.238281 9.984375 10.113281 9.859375 9.964844 9.722656 C 10.207031 9.761719 10.441406 9.796875 10.671875 9.828125 C 12.09375 10.039062 13.347656 10.222656 14.625 10.988281 Z M 14.625 10.988281 "/>
<path style=" stroke:none;fill-rule:nonzero;fill:rgb(8.235294%,26.666668%,47.843137%);fill-opacity:1;" d="M 13.511719 14.332031 C 13.507812 14.34375 13.503906 14.359375 13.5 14.371094 Z M 13.511719 14.332031 "/>
<path style=" stroke:none;fill-rule:nonzero;fill:rgb(8.235294%,26.666668%,47.843137%);fill-opacity:1;" d="M 17.804688 3.347656 C 18.550781 2.261719 19.59375 1.074219 20.992188 0.09375 C 21.300781 0.136719 21.609375 0.191406 21.921875 0.265625 C 20.851562 0.8125 19.976562 1.636719 19.222656 2.484375 C 18.8125 2.941406 18.429688 3.417969 18.070312 3.867188 C 17.914062 4.054688 17.765625 4.242188 17.621094 4.417969 C 17.25 4.867188 16.90625 5.257812 16.574219 5.566406 C 16.808594 5.007812 17.207031 4.214844 17.804688 3.347656 Z M 17.804688 3.347656 "/>
<path style=" stroke:none;fill-rule:nonzero;fill:rgb(8.235294%,26.666668%,47.843137%);fill-opacity:1;" d="M 19.761719 2.847656 C 20.644531 1.855469 21.625 0.980469 22.820312 0.53125 C 23.21875 0.667969 23.613281 0.835938 24.003906 1.042969 C 22.9375 1.246094 22.015625 1.820312 21.21875 2.46875 C 20.640625 2.941406 20.105469 3.472656 19.621094 3.953125 C 19.433594 4.136719 19.253906 4.316406 19.085938 4.480469 C 18.769531 4.78125 18.484375 5.035156 18.214844 5.226562 C 18.203125 5.234375 18.1875 5.246094 18.175781 5.253906 C 18.007812 5.28125 17.835938 5.316406 17.65625 5.367188 C 17.828125 5.175781 18 4.972656 18.171875 4.761719 C 18.328125 4.578125 18.480469 4.386719 18.636719 4.191406 C 18.992188 3.75 19.363281 3.292969 19.761719 2.847656 Z M 19.761719 2.847656 "/>
<path style=" stroke:none;fill-rule:nonzero;fill:rgb(8.235294%,26.666668%,47.843137%);fill-opacity:1;" d="M 18.558594 23.84375 C 20.171875 26.261719 19.597656 28.519531 18.644531 30.703125 C 18.421875 31.207031 18.179688 31.714844 17.9375 32.21875 L 17.851562 32.398438 C 17.582031 32.960938 17.316406 33.523438 17.078125 34.089844 C 16.816406 34.722656 16.59375 35.359375 16.449219 36 C 16.855469 35.308594 17.308594 34.710938 17.800781 34.183594 C 17.992188 33.804688 18.214844 33.425781 18.445312 33.042969 C 18.675781 32.660156 18.917969 32.277344 19.164062 31.890625 C 19.671875 31.089844 20.1875 30.28125 20.613281 29.453125 C 21.238281 28.234375 21.636719 27.039062 21.511719 25.882812 C 21.402344 24.867188 20.886719 23.855469 19.6875 22.871094 C 19.464844 23.277344 19.0625 23.601562 18.558594 23.84375 Z M 18.558594 23.84375 "/>
<path style=" stroke:none;fill-rule:nonzero;fill:rgb(8.235294%,26.666668%,47.843137%);fill-opacity:1;" d="M 20.988281 20.261719 C 22.167969 21.3125 23.488281 22.742188 24.011719 24.765625 C 24.398438 26.257812 24.34375 28.050781 23.519531 30.226562 C 24.355469 29.730469 25.195312 29.203125 26.003906 28.570312 C 26.234375 27.9375 26.347656 27.347656 26.367188 26.796875 C 26.414062 25.40625 25.875 24.222656 25.113281 23.167969 C 24.511719 22.339844 23.785156 21.609375 23.105469 20.925781 C 22.917969 20.738281 22.734375 20.550781 22.554688 20.367188 C 22.179688 19.980469 21.835938 19.601562 21.574219 19.230469 L 21.535156 19.234375 C 21.433594 19.507812 21.300781 19.773438 21.148438 20.019531 C 21.097656 20.105469 21.042969 20.1875 20.988281 20.261719 Z M 20.988281 20.261719 "/>
<path style=" stroke:none;fill-rule:nonzero;fill:rgb(8.235294%,26.666668%,47.843137%);fill-opacity:1;" d="M 22.105469 18.847656 C 21.945312 18.609375 21.835938 18.390625 21.785156 18.1875 C 21.816406 17.898438 21.816406 17.605469 21.789062 17.3125 C 21.765625 17.066406 21.726562 16.753906 21.703125 16.566406 L 21.902344 16.417969 C 21.949219 16.382812 21.996094 16.34375 22.042969 16.308594 C 22.058594 16.363281 22.078125 16.414062 22.097656 16.472656 C 22.222656 16.792969 22.429688 17.175781 22.738281 17.609375 C 23.355469 18.480469 24.390625 19.574219 26.03125 20.839844 C 27.996094 22.355469 28.644531 23.867188 28.621094 25.207031 C 28.617188 25.492188 28.582031 25.773438 28.519531 26.046875 C 28.011719 26.707031 27.480469 27.277344 26.929688 27.785156 C 26.996094 27.453125 27.035156 27.128906 27.046875 26.8125 C 27.097656 25.269531 26.496094 23.96875 25.6875 22.855469 C 25.054688 21.980469 24.285156 21.207031 23.601562 20.519531 C 23.417969 20.335938 23.242188 20.160156 23.074219 19.988281 C 22.675781 19.574219 22.339844 19.199219 22.105469 18.847656 Z M 22.105469 18.847656 "/>
<path style=" stroke:none;fill-rule:nonzero;fill:rgb(8.235294%,26.666668%,47.843137%);fill-opacity:1;" d="M 22.625 15.796875 C 22.628906 15.902344 22.660156 16.0625 22.742188 16.28125 C 22.847656 16.550781 23.03125 16.894531 23.316406 17.296875 C 23.894531 18.109375 24.878906 19.160156 26.480469 20.398438 C 28.445312 21.910156 29.230469 23.472656 29.296875 24.933594 C 29.539062 24.554688 29.761719 24.179688 29.964844 23.800781 C 29.957031 23.550781 29.929688 23.304688 29.882812 23.058594 C 29.597656 21.585938 28.628906 20.136719 26.707031 18.824219 C 25.066406 17.703125 24.128906 16.648438 23.585938 15.851562 C 23.417969 15.597656 23.285156 15.371094 23.183594 15.179688 C 23.019531 15.386719 22.835938 15.59375 22.625 15.796875 Z M 22.625 15.796875 "/>
<path style=" stroke:none;fill-rule:nonzero;fill:rgb(8.235294%,26.666668%,47.843137%);fill-opacity:1;" d="M 23.667969 14.652344 C 23.648438 14.613281 23.632812 14.578125 23.617188 14.542969 C 23.8125 14.210938 23.957031 13.878906 24.0625 13.550781 C 24.277344 13.828125 24.570312 14.15625 24.941406 14.527344 C 25.695312 15.28125 26.800781 16.222656 28.347656 17.273438 C 30.109375 18.472656 30.820312 20.03125 31.03125 21.347656 C 30.878906 21.800781 30.703125 22.257812 30.5 22.714844 C 30.125 21.160156 29.054688 19.675781 27.128906 18.359375 C 25.550781 17.28125 24.671875 16.285156 24.175781 15.550781 C 23.925781 15.179688 23.769531 14.875 23.667969 14.652344 Z M 23.667969 14.652344 "/>
<path style=" stroke:none;fill-rule:nonzero;fill:rgb(8.235294%,26.666668%,47.843137%);fill-opacity:1;" d="M 24.253906 12.671875 C 24.378906 12.917969 24.742188 13.429688 25.453125 14.136719 C 26.179688 14.859375 27.25 15.777344 28.765625 16.808594 C 30.183594 17.773438 30.980469 18.949219 31.394531 20.078125 C 31.640625 19.042969 31.769531 18.03125 31.792969 17.058594 C 31.417969 16.222656 30.34375 14.9375 28.007812 13.980469 C 26.480469 13.355469 25.359375 12.617188 24.589844 11.957031 C 24.476562 11.859375 24.371094 11.765625 24.273438 11.671875 C 24.296875 11.984375 24.296875 12.320312 24.253906 12.671875 Z M 24.253906 12.671875 "/>
<path style=" stroke:none;fill-rule:nonzero;fill:rgb(8.235294%,26.666668%,47.843137%);fill-opacity:1;" d="M 25.070312 11.535156 C 24.511719 11.058594 24.179688 10.644531 24.019531 10.382812 C 23.949219 10.167969 23.867188 9.949219 23.773438 9.734375 C 23.957031 9.667969 24.128906 9.59375 24.292969 9.515625 C 24.90625 9.96875 26.023438 10.667969 28.316406 11.460938 C 29.582031 11.902344 30.359375 12.5625 30.804688 13.292969 C 31.207031 13.941406 31.355469 14.660156 31.335938 15.351562 C 30.652344 14.683594 29.664062 14.003906 28.296875 13.445312 C 26.839844 12.851562 25.78125 12.148438 25.070312 11.535156 Z M 25.070312 11.535156 "/>
<path style=" stroke:none;fill-rule:nonzero;fill:rgb(8.235294%,26.666668%,47.843137%);fill-opacity:1;" d="M 23.507812 9.191406 C 25.578125 8.410156 26.398438 6.949219 26.417969 5.648438 C 26.441406 4.269531 25.589844 3.175781 24.464844 3.050781 C 23.960938 2.996094 23.453125 3.214844 22.710938 3.765625 C 22.359375 4.023438 21.976562 4.339844 21.53125 4.707031 L 21.480469 4.75 C 21.113281 5.054688 20.707031 5.386719 20.253906 5.742188 C 20.453125 5.871094 20.644531 6.015625 20.835938 6.167969 C 21.296875 5.503906 22.535156 4.824219 24.964844 4.964844 C 25.152344 4.976562 25.292969 5.117188 25.28125 5.28125 C 25.269531 5.441406 25.109375 5.566406 24.921875 5.554688 C 22.398438 5.410156 21.554688 6.191406 21.351562 6.589844 C 21.382812 6.617188 21.414062 6.644531 21.441406 6.667969 C 21.996094 6.527344 22.667969 6.496094 23.300781 6.53125 C 24.011719 6.566406 24.714844 6.679688 25.21875 6.824219 C 25.398438 6.875 25.492188 7.042969 25.433594 7.199219 C 25.375 7.355469 25.183594 7.4375 25.003906 7.386719 C 24.566406 7.261719 23.921875 7.152344 23.261719 7.121094 C 22.804688 7.097656 22.359375 7.113281 21.976562 7.167969 C 22.609375 7.804688 23.125 8.488281 23.507812 9.191406 Z M 23.507812 9.191406 "/>
<path style=" stroke:none;fill-rule:nonzero;fill:rgb(8.235294%,26.666668%,47.843137%);fill-opacity:1;" d="M 21.011719 4.320312 C 20.605469 4.65625 20.15625 5.027344 19.652344 5.417969 C 19.578125 5.390625 19.503906 5.363281 19.429688 5.339844 C 19.34375 5.3125 19.253906 5.289062 19.164062 5.269531 C 19.304688 5.144531 19.445312 5.015625 19.589844 4.878906 C 19.773438 4.699219 19.960938 4.511719 20.152344 4.324219 C 20.632812 3.847656 21.132812 3.351562 21.683594 2.902344 C 22.023438 2.625 22.394531 2.359375 22.785156 2.140625 C 24.03125 1.445312 25.566406 1.910156 26.574219 2.921875 C 28.515625 4.871094 27.878906 6.425781 27.261719 7.828125 C 28.003906 7.921875 28.792969 8.457031 29.503906 9.328125 C 29.011719 9.070312 28.5 8.878906 28.007812 8.738281 C 27.238281 8.523438 26.496094 8.429688 25.894531 8.410156 C 26.714844 7.582031 27.085938 6.59375 27.097656 5.65625 C 27.125 4.128906 26.167969 2.640625 24.550781 2.460938 C 23.734375 2.371094 23.023438 2.757812 22.273438 3.3125 C 21.90625 3.582031 21.507812 3.910156 21.070312 4.273438 Z M 21.011719 4.320312 "/>
<path style=" stroke:none;fill-rule:nonzero;fill:rgb(8.235294%,26.666668%,47.843137%);fill-opacity:1;" d="M 27.796875 9.304688 C 28.292969 9.441406 28.792969 9.636719 29.269531 9.902344 C 30.117188 10.375 30.695312 11.207031 31.023438 12.121094 C 31.097656 12.324219 31.167969 12.535156 31.230469 12.75 C 30.6875 12 29.828125 11.347656 28.566406 10.914062 C 26.550781 10.214844 25.5 9.601562 24.90625 9.1875 C 24.996094 9.132812 25.082031 9.078125 25.164062 9.019531 C 25.707031 8.964844 26.71875 9 27.796875 9.304688 Z M 27.796875 9.304688 "/>
<path style=" stroke:none;fill-rule:nonzero;fill:rgb(8.235294%,26.666668%,47.843137%);fill-opacity:1;" d="M 17.167969 10.988281 L 18.28125 14.332031 C 18.285156 14.34375 18.289062 14.359375 18.292969 14.371094 L 18.28125 14.332031 C 17.972656 13.394531 18.074219 12.488281 18.207031 11.859375 C 18.664062 11.898438 18.996094 11.867188 19.308594 11.800781 C 20.136719 11.617188 20.6875 10.976562 21.214844 10.371094 C 21.292969 10.28125 21.367188 10.191406 21.445312 10.105469 C 21.554688 9.984375 21.679688 9.859375 21.828125 9.722656 C 21.585938 9.761719 21.351562 9.796875 21.121094 9.828125 C 19.699219 10.039062 18.445312 10.222656 17.167969 10.988281 Z M 17.167969 10.988281 "/>
<path style=" stroke:none;fill-rule:evenodd;fill:rgb(8.235294%,26.666668%,47.843137%);fill-opacity:1;" d="M 48.054688 20.777344 C 47.707031 19.914062 47.535156 18.96875 47.535156 17.9375 C 47.535156 16.90625 47.707031 15.964844 48.054688 15.113281 C 48.402344 14.25 48.890625 13.507812 49.519531 12.890625 C 50.164062 12.257812 50.914062 11.777344 51.773438 11.441406 C 52.648438 11.09375 53.613281 10.917969 54.664062 10.917969 C 55.71875 10.917969 56.675781 11.09375 57.535156 11.441406 C 58.410156 11.777344 59.160156 12.257812 59.792969 12.890625 C 60.433594 13.507812 60.929688 14.25 61.273438 15.113281 C 61.621094 15.964844 61.796875 16.90625 61.796875 17.9375 C 61.796875 18.96875 61.621094 19.914062 61.273438 20.777344 C 60.929688 21.628906 60.433594 22.371094 59.792969 23.003906 C 59.160156 23.621094 58.410156 24.105469 57.535156 24.453125 C 56.675781 24.789062 55.71875 24.957031 54.664062 24.957031 C 53.613281 24.957031 52.648438 24.789062 51.773438 24.453125 C 50.914062 24.105469 50.164062 23.621094 49.519531 23.003906 C 48.890625 22.371094 48.402344 21.628906 48.054688 20.777344 Z M 59.136719 17.9375 C 59.136719 17.035156 58.945312 16.25 58.558594 15.578125 C 58.1875 14.894531 57.664062 14.359375 56.996094 13.972656 C 56.328125 13.585938 55.550781 13.394531 54.664062 13.394531 C 53.792969 13.394531 53.015625 13.585938 52.332031 13.972656 C 51.664062 14.359375 51.140625 14.894531 50.753906 15.578125 C 50.382812 16.25 50.195312 17.035156 50.195312 17.9375 C 50.195312 18.828125 50.382812 19.613281 50.753906 20.296875 C 51.140625 20.980469 51.664062 21.515625 52.332031 21.902344 C 53.015625 22.289062 53.792969 22.480469 54.664062 22.480469 C 55.550781 22.480469 56.328125 22.289062 56.996094 21.902344 C 57.664062 21.515625 58.1875 20.980469 58.558594 20.296875 C 58.945312 19.613281 59.136719 18.828125 59.136719 17.9375 Z M 59.136719 17.9375 "/>
<path style=" stroke:none;fill-rule:nonzero;fill:rgb(8.235294%,26.666668%,47.843137%);fill-opacity:1;" d="M 74.324219 14.574219 L 74.480469 14.574219 L 74.480469 11.167969 C 74.285156 11.246094 74.066406 11.285156 73.824219 11.285156 C 73.605469 11.285156 73.253906 11.226562 72.765625 11.113281 C 72.289062 10.984375 71.710938 10.917969 71.03125 10.917969 C 69.515625 10.917969 68.183594 11.214844 67.039062 11.808594 C 65.910156 12.386719 65.03125 13.207031 64.402344 14.261719 C 63.769531 15.308594 63.457031 16.53125 63.457031 17.9375 C 63.457031 18.957031 63.628906 19.894531 63.976562 20.761719 C 64.324219 21.609375 64.816406 22.351562 65.460938 22.984375 C 66.101562 23.613281 66.855469 24.105469 67.714844 24.453125 C 68.589844 24.789062 69.546875 24.957031 70.585938 24.957031 C 71.949219 24.957031 73.125 24.671875 74.113281 24.105469 C 75.101562 23.539062 75.859375 22.75 76.386719 21.746094 C 76.925781 20.742188 77.195312 19.582031 77.195312 18.265625 C 77.195312 18.164062 77.203125 18.070312 77.210938 17.980469 C 77.226562 17.835938 77.253906 17.707031 77.292969 17.589844 C 77.371094 17.394531 77.472656 17.234375 77.601562 17.105469 L 77.601562 16.949219 L 71.414062 16.949219 C 71.359375 16.949219 71.300781 16.949219 71.246094 16.949219 C 71.191406 16.949219 71.136719 16.945312 71.085938 16.945312 C 71.003906 16.941406 70.917969 16.9375 70.835938 16.933594 C 70.738281 16.929688 70.644531 16.921875 70.546875 16.914062 C 70.253906 16.886719 69.988281 16.847656 69.757812 16.796875 L 69.757812 19.949219 L 69.910156 19.949219 C 70.066406 19.730469 70.324219 19.554688 70.683594 19.425781 C 71.042969 19.285156 71.511719 19.214844 72.089844 19.214844 L 74.457031 19.214844 C 74.441406 19.820312 74.277344 20.367188 73.957031 20.855469 C 73.625 21.359375 73.164062 21.757812 72.570312 22.054688 C 71.992188 22.339844 71.332031 22.480469 70.585938 22.480469 C 69.714844 22.480469 68.9375 22.289062 68.253906 21.902344 C 67.585938 21.515625 67.058594 20.980469 66.675781 20.296875 C 66.300781 19.613281 66.117188 18.828125 66.117188 17.9375 C 66.117188 17.023438 66.320312 16.222656 66.734375 15.539062 C 67.144531 14.855469 67.722656 14.328125 68.46875 13.953125 C 69.226562 13.582031 70.105469 13.394531 71.105469 13.394531 C 71.464844 13.394531 71.800781 13.417969 72.109375 13.472656 C 72.429688 13.507812 72.726562 13.582031 72.996094 13.683594 C 73.277344 13.773438 73.535156 13.910156 73.765625 14.089844 C 74.011719 14.269531 74.195312 14.429688 74.324219 14.574219 Z M 74.324219 14.574219 "/>
<path style=" stroke:none;fill-rule:evenodd;fill:rgb(8.235294%,26.666668%,47.843137%);fill-opacity:1;" d="M 79.257812 20.777344 C 78.910156 19.914062 78.738281 18.96875 78.738281 17.9375 C 78.738281 16.90625 78.910156 15.964844 79.257812 15.113281 C 79.605469 14.25 80.09375 13.507812 80.722656 12.890625 C 81.363281 12.257812 82.117188 11.777344 82.976562 11.441406 C 83.851562 11.09375 84.8125 10.917969 85.867188 10.917969 C 86.921875 10.917969 87.878906 11.09375 88.738281 11.441406 C 89.613281 11.777344 90.363281 12.257812 90.992188 12.890625 C 91.636719 13.507812 92.128906 14.25 92.476562 15.113281 C 92.824219 15.964844 92.996094 16.90625 92.996094 17.9375 C 92.996094 18.96875 92.824219 19.914062 92.476562 20.777344 C 92.128906 21.628906 91.636719 22.371094 90.992188 23.003906 C 90.363281 23.621094 89.613281 24.105469 88.738281 24.453125 C 87.878906 24.789062 86.921875 24.957031 85.867188 24.957031 C 84.8125 24.957031 83.851562 24.789062 82.976562 24.453125 C 82.117188 24.105469 81.363281 23.621094 80.722656 23.003906 C 80.09375 22.371094 79.605469 21.628906 79.257812 20.777344 Z M 90.339844 17.9375 C 90.339844 17.035156 90.144531 16.25 89.761719 15.578125 C 89.386719 14.894531 88.867188 14.359375 88.199219 13.972656 C 87.53125 13.585938 86.753906 13.394531 85.867188 13.394531 C 84.992188 13.394531 84.21875 13.585938 83.535156 13.972656 C 82.867188 14.359375 82.339844 14.894531 81.957031 15.578125 C 81.582031 16.25 81.398438 17.035156 81.398438 17.9375 C 81.398438 18.828125 81.582031 19.613281 81.957031 20.296875 C 82.339844 20.980469 82.867188 21.515625 83.535156 21.902344 C 84.21875 22.289062 84.992188 22.480469 85.867188 22.480469 C 86.753906 22.480469 87.53125 22.289062 88.199219 21.902344 C 88.867188 21.515625 89.386719 20.980469 89.761719 20.296875 C 90.144531 19.613281 90.339844 18.828125 90.339844 17.9375 Z M 90.339844 17.9375 "/>
<path style=" stroke:none;fill-rule:nonzero;fill:rgb(8.235294%,26.666668%,47.843137%);fill-opacity:1;" d="M 114.871094 13.085938 C 114.394531 13.753906 113.925781 14.664062 113.464844 15.808594 L 111.980469 19.464844 C 111.683594 20.199219 111.410156 20.761719 111.152344 21.148438 C 110.90625 21.535156 110.664062 21.796875 110.417969 21.9375 C 110.1875 22.082031 109.933594 22.152344 109.648438 22.152344 C 109.429688 22.152344 109.226562 22.113281 109.03125 22.035156 C 108.839844 21.945312 108.671875 21.824219 108.53125 21.667969 L 108.378906 21.667969 L 108.378906 24.570312 C 108.394531 24.574219 108.414062 24.578125 108.4375 24.582031 C 108.464844 24.589844 108.5 24.597656 108.53125 24.605469 C 108.570312 24.613281 108.609375 24.621094 108.652344 24.628906 C 108.722656 24.644531 108.796875 24.65625 108.878906 24.664062 C 109.082031 24.691406 109.308594 24.703125 109.554688 24.703125 C 110.15625 24.703125 110.695312 24.621094 111.171875 24.453125 C 111.660156 24.285156 112.097656 24.019531 112.480469 23.660156 C 112.867188 23.285156 113.234375 22.808594 113.582031 22.230469 C 113.925781 21.648438 114.269531 20.945312 114.601562 20.121094 L 116.085938 16.46875 C 116.382812 15.734375 116.65625 15.171875 116.914062 14.785156 C 117.183594 14.386719 117.433594 14.117188 117.664062 13.972656 C 117.679688 13.964844 117.699219 13.953125 117.714844 13.941406 L 117.746094 13.921875 L 117.773438 13.90625 L 117.789062 13.898438 L 117.816406 13.882812 C 117.828125 13.875 117.839844 13.871094 117.855469 13.863281 C 117.882812 13.851562 117.90625 13.839844 117.933594 13.828125 C 118.070312 13.769531 118.207031 13.742188 118.339844 13.742188 C 118.546875 13.742188 118.730469 13.785156 118.898438 13.875 C 119.066406 13.953125 119.195312 14.042969 119.285156 14.148438 L 119.4375 14.148438 L 119.4375 11.113281 C 119.363281 11.136719 119.285156 11.15625 119.207031 11.167969 C 119.179688 11.175781 119.148438 11.179688 119.121094 11.183594 C 119.101562 11.183594 119.085938 11.183594 119.070312 11.1875 C 119.054688 11.1875 119.042969 11.1875 119.03125 11.1875 C 119.011719 11.1875 118.992188 11.1875 118.976562 11.1875 L 118.726562 11.1875 C 118.683594 11.183594 118.632812 11.175781 118.5625 11.175781 C 118.5 11.171875 118.425781 11.167969 118.339844 11.167969 C 117.632812 11.167969 116.996094 11.316406 116.433594 11.613281 C 115.878906 11.910156 115.359375 12.402344 114.871094 13.085938 Z M 114.871094 13.085938 "/>
<path style=" stroke:none;fill-rule:nonzero;fill:rgb(8.235294%,26.666668%,47.843137%);fill-opacity:1;" d="M 120.695312 13.546875 C 120.695312 12.96875 120.644531 12.511719 120.539062 12.175781 C 120.4375 11.828125 120.289062 11.574219 120.097656 11.421875 L 120.097656 11.265625 L 123.855469 11.265625 L 123.855469 11.421875 C 123.664062 11.574219 123.515625 11.828125 123.410156 12.175781 C 123.308594 12.511719 123.257812 12.96875 123.257812 13.546875 L 123.257812 19.753906 C 123.257812 20.644531 123.449219 21.320312 123.835938 21.785156 C 124.222656 22.25 124.785156 22.480469 125.53125 22.480469 C 126.277344 22.480469 126.84375 22.25 127.226562 21.785156 C 127.613281 21.320312 127.804688 20.644531 127.804688 19.753906 L 127.804688 13.546875 C 127.804688 12.96875 127.753906 12.511719 127.652344 12.175781 C 127.546875 11.828125 127.402344 11.574219 127.207031 11.421875 L 127.207031 11.265625 L 130.964844 11.265625 L 130.964844 11.421875 C 130.773438 11.574219 130.625 11.828125 130.523438 12.175781 C 130.417969 12.511719 130.367188 12.96875 130.367188 13.546875 L 130.367188 19.871094 C 130.367188 20.964844 130.183594 21.894531 129.808594 22.65625 C 129.449219 23.414062 128.910156 23.988281 128.191406 24.375 C 127.472656 24.761719 126.585938 24.957031 125.53125 24.957031 C 124.476562 24.957031 123.589844 24.761719 122.871094 24.375 C 122.152344 23.988281 121.605469 23.414062 121.234375 22.65625 C 120.875 21.894531 120.695312 20.964844 120.695312 19.871094 Z M 120.695312 13.546875 "/>
<path style=" stroke:none;fill-rule:nonzero;fill:rgb(8.235294%,26.666668%,47.843137%);fill-opacity:1;" d="M 132.949219 13.703125 C 132.949219 13.121094 132.890625 12.640625 132.773438 12.253906 C 132.660156 11.867188 132.492188 11.589844 132.273438 11.421875 L 132.273438 11.265625 L 135.703125 11.265625 L 135.703125 11.382812 C 135.511719 11.628906 135.433594 11.910156 135.472656 12.234375 C 135.511719 12.554688 135.683594 12.859375 135.992188 13.140625 L 139.425781 16.234375 L 142.621094 13.257812 C 142.96875 12.9375 143.167969 12.605469 143.21875 12.273438 C 143.285156 11.925781 143.226562 11.628906 143.046875 11.382812 L 143.046875 11.265625 L 146.476562 11.265625 L 146.476562 11.421875 C 146.269531 11.589844 146.105469 11.867188 145.976562 12.253906 C 145.859375 12.640625 145.800781 13.121094 145.800781 13.703125 L 145.800781 22.324219 C 145.800781 22.90625 145.851562 23.371094 145.957031 23.71875 C 146.058594 24.054688 146.207031 24.296875 146.398438 24.453125 L 146.398438 24.609375 L 142.640625 24.609375 L 142.640625 24.453125 C 142.835938 24.296875 142.980469 24.054688 143.085938 23.71875 C 143.1875 23.371094 143.238281 22.90625 143.238281 22.324219 L 143.238281 15.84375 L 139.421875 19.308594 L 139.347656 19.308594 L 135.511719 15.882812 L 135.511719 22.324219 C 135.511719 22.90625 135.5625 23.371094 135.664062 23.71875 C 135.769531 24.054688 135.917969 24.296875 136.109375 24.453125 L 136.109375 24.609375 L 132.351562 24.609375 L 132.351562 24.453125 C 132.542969 24.296875 132.691406 24.054688 132.792969 23.71875 C 132.898438 23.371094 132.949219 22.90625 132.949219 22.324219 Z M 132.949219 13.703125 "/>
<path style=" stroke:none;fill-rule:evenodd;fill:rgb(8.235294%,26.666668%,47.843137%);fill-opacity:1;" d="M 103.011719 22.324219 C 103.011719 22.917969 103.070312 23.390625 103.183594 23.738281 C 103.3125 24.074219 103.484375 24.3125 103.703125 24.453125 L 103.703125 24.609375 L 99.851562 24.609375 L 99.851562 24.453125 C 100.042969 24.296875 100.191406 24.054688 100.292969 23.71875 C 100.398438 23.371094 100.449219 22.90625 100.449219 22.324219 L 100.449219 13.546875 C 100.449219 12.96875 100.390625 12.511719 100.273438 12.175781 C 100.160156 11.828125 100 11.574219 99.792969 11.421875 L 99.792969 11.265625 L 104.589844 11.265625 C 106.234375 11.265625 107.519531 11.691406 108.445312 12.542969 C 109.382812 13.394531 109.851562 14.566406 109.851562 16.0625 C 109.851562 17.054688 109.640625 17.910156 109.214844 18.632812 C 108.792969 19.34375 108.1875 19.890625 107.40625 20.277344 C 106.621094 20.664062 105.683594 20.855469 104.589844 20.855469 L 103.011719 20.855469 Z M 103.011719 13.625 L 103.011719 18.496094 L 104.476562 18.496094 C 105.363281 18.496094 106.035156 18.292969 106.5 17.878906 C 106.960938 17.453125 107.191406 16.847656 107.191406 16.0625 C 107.191406 15.261719 106.960938 14.65625 106.5 14.246094 C 106.035156 13.832031 105.363281 13.625 104.476562 13.625 Z M 103.011719 13.625 "/>
<path style=" stroke:none;fill-rule:nonzero;fill:rgb(8.235294%,26.666668%,47.843137%);fill-opacity:1;" d="M 95.023438 12.175781 C 95.128906 12.511719 95.179688 12.96875 95.179688 13.546875 L 95.179688 22.324219 C 95.179688 22.570312 95.167969 22.796875 95.152344 23 C 95.125 23.277344 95.082031 23.519531 95.023438 23.71875 C 94.992188 23.816406 94.960938 23.910156 94.921875 23.992188 C 94.886719 24.070312 94.847656 24.140625 94.804688 24.207031 C 94.738281 24.304688 94.664062 24.386719 94.582031 24.453125 L 94.582031 24.609375 L 98.339844 24.609375 L 98.339844 24.453125 C 98.144531 24.296875 98 24.054688 97.894531 23.71875 C 97.792969 23.371094 97.742188 22.90625 97.742188 22.324219 L 97.742188 13.546875 C 97.742188 12.96875 97.792969 12.511719 97.894531 12.175781 C 98 11.828125 98.144531 11.574219 98.339844 11.421875 L 98.339844 11.265625 L 94.582031 11.265625 L 94.582031 11.421875 C 94.773438 11.574219 94.921875 11.828125 95.023438 12.175781 Z M 95.023438 12.175781 "/>
<path style=" stroke:none;fill-rule:nonzero;fill:rgb(8.235294%,26.666668%,47.843137%);fill-opacity:1;" d="M 40.699219 22.210938 L 44.613281 22.210938 C 45.191406 22.210938 45.652344 22.160156 46 22.054688 C 46.347656 21.9375 46.597656 21.777344 46.753906 21.570312 L 46.90625 21.570312 L 46.90625 24.761719 C 46.675781 24.699219 46.410156 24.652344 46.117188 24.625 C 45.832031 24.613281 45.542969 24.609375 45.25 24.609375 L 37.484375 24.609375 L 37.484375 24.453125 C 37.6875 24.296875 37.847656 24.054688 37.964844 23.71875 C 38.082031 23.371094 38.136719 22.90625 38.136719 22.324219 L 38.136719 13.546875 C 38.136719 12.96875 38.085938 12.511719 37.984375 12.175781 C 37.882812 11.828125 37.734375 11.574219 37.539062 11.421875 L 37.539062 11.265625 L 41.394531 11.265625 L 41.394531 11.421875 C 41.300781 11.484375 41.210938 11.5625 41.132812 11.664062 C 41.03125 11.789062 40.945312 11.949219 40.875 12.136719 C 40.757812 12.472656 40.699219 12.941406 40.699219 13.546875 Z M 40.699219 22.210938 "/>
<path style=" stroke:none;fill-rule:evenodd;fill:rgb(8.235294%,26.666668%,47.843137%);fill-opacity:1;" d="M 138.519531 31.125 C 138.519531 31.773438 138.632812 32.269531 138.855469 32.621094 C 139.078125 32.96875 139.398438 33.140625 139.8125 33.140625 C 140.234375 33.140625 140.554688 32.96875 140.777344 32.621094 C 141 32.269531 141.113281 31.773438 141.113281 31.125 C 141.113281 30.476562 141 29.980469 140.777344 29.628906 C 140.554688 29.28125 140.234375 29.109375 139.8125 29.109375 C 139.398438 29.109375 139.078125 29.28125 138.855469 29.628906 C 138.632812 29.980469 138.519531 30.476562 138.519531 31.125 Z M 140.625 31.125 C 140.625 31.636719 140.554688 32.027344 140.417969 32.292969 C 140.285156 32.558594 140.082031 32.691406 139.8125 32.691406 C 139.546875 32.691406 139.347656 32.558594 139.207031 32.292969 C 139.070312 32.027344 139 31.636719 139 31.125 C 139 30.613281 139.070312 30.222656 139.207031 29.957031 C 139.347656 29.691406 139.546875 29.558594 139.8125 29.558594 C 140.082031 29.558594 140.285156 29.691406 140.417969 29.957031 C 140.554688 30.222656 140.625 30.613281 140.625 31.125 Z M 140.625 31.125 "/>
<path style=" stroke:none;fill-rule:nonzero;fill:rgb(8.235294%,26.666668%,47.843137%);fill-opacity:1;" d="M 137.40625 32.621094 L 136.347656 32.621094 L 137.003906 31.726562 C 137.246094 31.398438 137.417969 31.113281 137.523438 30.871094 C 137.632812 30.632812 137.683594 30.40625 137.683594 30.199219 C 137.683594 29.867188 137.574219 29.609375 137.347656 29.417969 C 137.125 29.222656 136.820312 29.125 136.4375 29.125 C 136.296875 29.125 136.183594 29.132812 136.089844 29.152344 C 135.996094 29.171875 135.917969 29.191406 135.859375 29.210938 C 135.804688 29.222656 135.753906 29.230469 135.714844 29.230469 L 135.652344 29.230469 C 135.632812 29.226562 135.605469 29.222656 135.570312 29.222656 L 135.570312 29.921875 L 135.609375 29.921875 C 135.632812 29.882812 135.664062 29.84375 135.699219 29.8125 C 135.734375 29.777344 135.777344 29.746094 135.828125 29.714844 C 135.886719 29.675781 135.964844 29.644531 136.0625 29.613281 C 136.160156 29.585938 136.261719 29.570312 136.375 29.570312 C 136.625 29.570312 136.824219 29.628906 136.96875 29.753906 C 137.113281 29.878906 137.1875 30.046875 137.1875 30.261719 C 137.1875 30.371094 137.160156 30.5 137.109375 30.640625 C 137.054688 30.78125 136.972656 30.945312 136.855469 31.128906 C 136.746094 31.316406 136.597656 31.539062 136.414062 31.789062 L 135.511719 33.023438 L 135.511719 33.0625 L 137.566406 33.0625 C 137.640625 33.0625 137.707031 33.066406 137.773438 33.070312 C 137.84375 33.078125 137.902344 33.085938 137.953125 33.101562 L 137.953125 32.394531 L 137.910156 32.394531 C 137.871094 32.464844 137.8125 32.523438 137.730469 32.5625 C 137.652344 32.601562 137.542969 32.621094 137.40625 32.621094 Z M 137.40625 32.621094 "/>
<path style=" stroke:none;fill-rule:nonzero;fill:rgb(8.235294%,26.666668%,47.843137%);fill-opacity:1;" d="M 123.109375 32.609375 L 121.722656 32.609375 L 121.722656 31.097656 L 122.4375 31.097656 C 122.5625 31.097656 122.652344 31.109375 122.710938 31.136719 C 122.773438 31.160156 122.816406 31.191406 122.847656 31.238281 L 122.886719 31.238281 L 122.886719 30.507812 L 122.847656 30.507812 C 122.816406 30.546875 122.773438 30.582031 122.710938 30.609375 C 122.652344 30.632812 122.5625 30.648438 122.4375 30.648438 L 121.722656 30.648438 L 121.722656 29.640625 L 123.074219 29.640625 C 123.214844 29.640625 123.324219 29.660156 123.402344 29.699219 C 123.484375 29.734375 123.542969 29.792969 123.578125 29.867188 L 123.625 29.867188 L 123.625 29.148438 C 123.574219 29.160156 123.511719 29.167969 123.445312 29.175781 C 123.378906 29.183594 123.308594 29.1875 123.238281 29.1875 L 121.042969 29.1875 L 121.042969 29.230469 C 121.101562 29.265625 121.148438 29.324219 121.183594 29.40625 C 121.222656 29.488281 121.238281 29.605469 121.238281 29.753906 L 121.238281 32.496094 C 121.238281 32.644531 121.222656 32.761719 121.183594 32.84375 C 121.148438 32.925781 121.101562 32.984375 121.042969 33.019531 L 121.042969 33.0625 L 123.273438 33.0625 C 123.34375 33.0625 123.410156 33.066406 123.480469 33.070312 C 123.550781 33.078125 123.609375 33.085938 123.660156 33.101562 L 123.660156 32.382812 L 123.617188 32.382812 C 123.582031 32.453125 123.523438 32.511719 123.441406 32.550781 C 123.359375 32.589844 123.246094 32.609375 123.109375 32.609375 Z M 123.109375 32.609375 "/>
<path style=" stroke:none;fill-rule:nonzero;fill:rgb(8.235294%,26.666668%,47.843137%);fill-opacity:1;" d="M 125.8125 29.816406 L 125.773438 29.816406 C 125.746094 29.78125 125.714844 29.753906 125.671875 29.726562 C 125.636719 29.695312 125.59375 29.671875 125.542969 29.652344 C 125.511719 29.640625 125.472656 29.632812 125.425781 29.625 C 125.382812 29.613281 125.332031 29.609375 125.277344 29.609375 C 125.085938 29.609375 124.933594 29.65625 124.816406 29.753906 C 124.699219 29.851562 124.644531 29.976562 124.644531 30.125 C 124.644531 30.242188 124.675781 30.34375 124.738281 30.433594 C 124.800781 30.519531 124.910156 30.617188 125.070312 30.722656 L 125.359375 30.910156 C 125.523438 31.019531 125.660156 31.132812 125.761719 31.25 C 125.871094 31.359375 125.953125 31.480469 126.003906 31.609375 C 126.054688 31.734375 126.082031 31.875 126.082031 32.03125 C 126.082031 32.34375 125.96875 32.601562 125.742188 32.800781 C 125.515625 32.992188 125.195312 33.089844 124.777344 33.089844 C 124.667969 33.089844 124.558594 33.082031 124.445312 33.070312 C 124.339844 33.058594 124.25 33.042969 124.179688 33.03125 L 124.179688 32.402344 L 124.21875 32.402344 L 124.308594 32.492188 C 124.335938 32.511719 124.371094 32.535156 124.40625 32.550781 C 124.453125 32.578125 124.507812 32.601562 124.574219 32.621094 C 124.644531 32.636719 124.71875 32.648438 124.800781 32.648438 C 125.035156 32.648438 125.222656 32.589844 125.359375 32.480469 C 125.496094 32.363281 125.566406 32.214844 125.566406 32.03125 C 125.566406 31.882812 125.523438 31.753906 125.433594 31.640625 C 125.347656 31.527344 125.199219 31.402344 124.996094 31.265625 L 124.710938 31.070312 C 124.503906 30.933594 124.355469 30.792969 124.261719 30.640625 C 124.171875 30.492188 124.128906 30.320312 124.128906 30.128906 C 124.128906 29.839844 124.234375 29.605469 124.445312 29.429688 C 124.664062 29.25 124.960938 29.160156 125.335938 29.160156 C 125.410156 29.160156 125.472656 29.164062 125.523438 29.171875 C 125.574219 29.175781 125.621094 29.175781 125.65625 29.175781 C 125.699219 29.175781 125.75 29.167969 125.8125 29.148438 Z M 125.8125 29.816406 "/>
<path style=" stroke:none;fill-rule:nonzero;fill:rgb(8.235294%,26.666668%,47.843137%);fill-opacity:1;" d="M 126.832031 29.640625 L 127.464844 29.640625 L 127.464844 32.53125 C 127.464844 32.671875 127.449219 32.78125 127.414062 32.855469 C 127.386719 32.929688 127.339844 32.988281 127.28125 33.023438 L 127.28125 33.0625 L 128.132812 33.0625 L 128.132812 33.023438 C 128.070312 32.988281 128.027344 32.929688 127.992188 32.855469 C 127.960938 32.78125 127.945312 32.671875 127.945312 32.53125 L 127.945312 29.640625 L 128.578125 29.640625 C 128.71875 29.640625 128.828125 29.660156 128.90625 29.699219 C 128.988281 29.734375 129.046875 29.792969 129.082031 29.867188 L 129.128906 29.867188 L 129.128906 29.148438 C 129.078125 29.160156 129.015625 29.167969 128.949219 29.175781 C 128.882812 29.183594 128.8125 29.1875 128.742188 29.1875 L 126.671875 29.1875 C 126.601562 29.1875 126.535156 29.183594 126.464844 29.175781 C 126.394531 29.167969 126.335938 29.160156 126.285156 29.148438 L 126.285156 29.867188 L 126.328125 29.867188 C 126.367188 29.792969 126.425781 29.734375 126.503906 29.699219 C 126.585938 29.660156 126.695312 29.640625 126.832031 29.640625 Z M 126.832031 29.640625 "/>
<path style=" stroke:none;fill-rule:evenodd;fill:rgb(8.235294%,26.666668%,47.843137%);fill-opacity:1;" d="M 130.722656 29.1875 C 131.175781 29.1875 131.5625 29.265625 131.882812 29.417969 C 132.207031 29.570312 132.457031 29.792969 132.625 30.085938 C 132.800781 30.375 132.890625 30.722656 132.890625 31.125 C 132.890625 31.53125 132.800781 31.878906 132.625 32.171875 C 132.457031 32.457031 132.207031 32.679688 131.882812 32.832031 C 131.5625 32.988281 131.175781 33.0625 130.722656 33.0625 L 129.507812 33.0625 L 129.507812 33.019531 C 129.566406 32.984375 129.613281 32.925781 129.648438 32.84375 C 129.683594 32.761719 129.703125 32.644531 129.703125 32.496094 L 129.703125 29.753906 C 129.703125 29.605469 129.683594 29.488281 129.648438 29.40625 C 129.613281 29.324219 129.566406 29.265625 129.507812 29.230469 L 129.507812 29.1875 Z M 132.386719 31.125 C 132.386719 30.824219 132.320312 30.566406 132.191406 30.34375 C 132.058594 30.121094 131.875 29.949219 131.636719 29.828125 C 131.402344 29.703125 131.117188 29.640625 130.789062 29.640625 L 130.183594 29.640625 L 130.183594 32.609375 L 130.789062 32.609375 C 131.117188 32.609375 131.402344 32.546875 131.636719 32.429688 C 131.875 32.304688 132.058594 32.132812 132.191406 31.910156 C 132.320312 31.6875 132.386719 31.425781 132.386719 31.125 Z M 132.386719 31.125 "/>
<path style=" stroke:none;fill-rule:nonzero;fill:rgb(8.235294%,26.666668%,47.843137%);fill-opacity:1;" d="M 133.203125 32.769531 C 133.203125 32.867188 133.234375 32.949219 133.296875 33.019531 C 133.367188 33.085938 133.449219 33.121094 133.550781 33.121094 C 133.648438 33.121094 133.726562 33.085938 133.792969 33.019531 C 133.859375 32.949219 133.890625 32.867188 133.890625 32.769531 C 133.890625 32.675781 133.859375 32.597656 133.792969 32.53125 C 133.726562 32.460938 133.648438 32.429688 133.550781 32.429688 C 133.449219 32.429688 133.367188 32.460938 133.296875 32.53125 C 133.234375 32.597656 133.203125 32.675781 133.203125 32.769531 Z M 133.203125 32.769531 "/>
<path style=" stroke:none;fill-rule:nonzero;fill:rgb(8.235294%,26.666668%,47.843137%);fill-opacity:1;" d="M 143 32.53125 C 143 32.671875 143.019531 32.78125 143.050781 32.855469 C 143.089844 32.929688 143.136719 32.988281 143.199219 33.023438 L 143.199219 33.0625 L 142.320312 33.0625 L 142.320312 33.023438 C 142.382812 32.988281 142.429688 32.929688 142.464844 32.855469 C 142.5 32.78125 142.519531 32.671875 142.519531 32.53125 L 142.519531 29.816406 L 141.667969 30.226562 L 141.625 30.226562 L 141.625 29.761719 L 142.957031 29.148438 L 143 29.148438 Z M 143 32.53125 "/>
<path style=" stroke:none;fill-rule:evenodd;fill:rgb(8.235294%,26.666668%,47.843137%);fill-opacity:1;" d="M 145.535156 31.496094 C 145.398438 31.550781 145.253906 31.582031 145.097656 31.582031 C 144.867188 31.582031 144.660156 31.527344 144.476562 31.421875 C 144.292969 31.316406 144.152344 31.175781 144.046875 30.992188 C 143.941406 30.808594 143.890625 30.597656 143.890625 30.367188 C 143.890625 30.121094 143.945312 29.902344 144.058594 29.714844 C 144.167969 29.523438 144.324219 29.375 144.515625 29.269531 C 144.710938 29.164062 144.933594 29.109375 145.1875 29.109375 C 145.4375 29.109375 145.660156 29.160156 145.855469 29.265625 C 146.050781 29.367188 146.199219 29.507812 146.308594 29.691406 C 146.421875 29.875 146.476562 30.085938 146.476562 30.328125 C 146.476562 30.492188 146.449219 30.660156 146.390625 30.828125 C 146.335938 30.992188 146.242188 31.179688 146.113281 31.394531 L 145.097656 33.0625 L 144.5625 33.0625 L 144.5625 33.023438 Z M 146 30.351562 C 146 30.507812 145.964844 30.648438 145.894531 30.769531 C 145.824219 30.894531 145.726562 30.992188 145.601562 31.0625 C 145.480469 31.128906 145.339844 31.164062 145.175781 31.164062 C 145.015625 31.164062 144.878906 31.128906 144.757812 31.0625 C 144.636719 30.996094 144.542969 30.902344 144.472656 30.78125 C 144.40625 30.660156 144.371094 30.519531 144.371094 30.367188 C 144.371094 30.207031 144.40625 30.066406 144.472656 29.945312 C 144.542969 29.824219 144.640625 29.730469 144.761719 29.664062 C 144.886719 29.59375 145.027344 29.558594 145.1875 29.558594 C 145.34375 29.558594 145.484375 29.589844 145.601562 29.660156 C 145.726562 29.726562 145.824219 29.820312 145.894531 29.941406 C 145.964844 30.054688 146 30.191406 146 30.351562 Z M 146 30.351562 "/>
<path style=" stroke:none;fill-rule:nonzero;fill:rgb(8.235294%,26.666668%,47.843137%);fill-opacity:1;" d="M 150.019531 10.113281 C 150.019531 10.769531 149.488281 11.296875 148.835938 11.296875 C 148.183594 11.296875 147.65625 10.769531 147.65625 10.113281 C 147.65625 9.460938 148.183594 8.929688 148.835938 8.929688 C 149.488281 8.929688 150.019531 9.460938 150.019531 10.113281 Z M 150.019531 10.113281 "/>
</g>
</svg>
